<mxfile host="app.diagrams.net" modified="2024-07-02T01:53:56.262Z" agent="Mozilla/5.0 (Windows NT 10.0; Win64; x64) AppleWebKit/537.36 (KHTML, like Gecko) Chrome/126.0.0.0 Safari/537.36 Edg/126.0.0.0" version="24.6.4" etag="JEmeqjwcGET7goWVcTUJ" type="github">
  <diagram name="PÃ¡gina-1" id="rRhaMQTy-Oxj5n8YVETm">
    <mxGraphModel>
      <root>
        <mxCell id="0" />
        <mxCell id="1" parent="0" />
      </root>
    </mxGraphModel>
  </diagram>
</mxfile>
